<svg width="50" height="50" viewBox="0 0 50 50" fill="none" xmlns="http://www.w3.org/2000/svg">
<rect x="0.5" y="0.5" width="49" height="49" rx="11.5" fill="#FAF9FC"/>
<rect x="0.5" y="0.5" width="49" height="49" rx="11.5" stroke="#E9E9E9"/>
<g clip-path="url(#clip0_317_329)">
<path d="M31.5 17H19.5C18.3954 17 17.5 17.8954 17.5 19V31C17.5 32.1046 18.3954 33 19.5 33H31.5C32.6046 33 33.5 32.1046 33.5 31V19C33.5 17.8954 32.6046 17 31.5 17Z" stroke="#6949EB" stroke-width="1.5" stroke-linecap="round" stroke-linejoin="round"/>
<path d="M28.5 22H22.5V28H28.5V22Z" stroke="#6949EB" stroke-width="1.5" stroke-linecap="round" stroke-linejoin="round"/>
<path d="M22.5 14V17" stroke="#6949EB" stroke-width="1.5" stroke-linecap="round" stroke-linejoin="round"/>
<path d="M28.5 14V17" stroke="#6949EB" stroke-width="1.5" stroke-linecap="round" stroke-linejoin="round"/>
<path d="M22.5 33V36" stroke="#6949EB" stroke-width="1.5" stroke-linecap="round" stroke-linejoin="round"/>
<path d="M28.5 33V36" stroke="#6949EB" stroke-width="1.5" stroke-linecap="round" stroke-linejoin="round"/>
<path d="M33.5 22H36.5" stroke="#6949EB" stroke-width="1.5" stroke-linecap="round" stroke-linejoin="round"/>
<path d="M33.5 27H36.5" stroke="#6949EB" stroke-width="1.5" stroke-linecap="round" stroke-linejoin="round"/>
<path d="M14.5 22H17.5" stroke="#6949EB" stroke-width="1.5" stroke-linecap="round" stroke-linejoin="round"/>
<path d="M14.5 27H17.5" stroke="#6949EB" stroke-width="1.5" stroke-linecap="round" stroke-linejoin="round"/>
</g>
<defs>
<clipPath id="clip0_317_329">
<rect width="24" height="24" fill="white" transform="translate(13.5 13)"/>
</clipPath>
</defs>
</svg>
