<svg width="51" height="50" viewBox="0 0 51 50" fill="none" xmlns="http://www.w3.org/2000/svg">
<rect x="1.39844" y="0.5" width="49" height="49" rx="11.5" fill="#FAF9FC"/>
<rect x="1.39844" y="0.5" width="49" height="49" rx="11.5" stroke="#E9E9E9"/>
<g clip-path="url(#clip0_294_1956)">
<path d="M30.8984 34V32C30.8984 30.9391 30.477 29.9217 29.7269 29.1716C28.9767 28.4214 27.9593 28 26.8984 28H18.8984C17.8376 28 16.8202 28.4214 16.07 29.1716C15.3199 29.9217 14.8984 30.9391 14.8984 32V34" stroke="#6949EB" stroke-width="1.5" stroke-linecap="round" stroke-linejoin="round"/>
<path d="M22.8984 24C25.1076 24 26.8984 22.2091 26.8984 20C26.8984 17.7909 25.1076 16 22.8984 16C20.6893 16 18.8984 17.7909 18.8984 20C18.8984 22.2091 20.6893 24 22.8984 24Z" stroke="#6949EB" stroke-width="1.5" stroke-linecap="round" stroke-linejoin="round"/>
<path d="M36.8984 34V32C36.8978 31.1137 36.6028 30.2528 36.0598 29.5523C35.5168 28.8519 34.7566 28.3516 33.8984 28.13" stroke="#6949EB" stroke-width="1.5" stroke-linecap="round" stroke-linejoin="round"/>
<path d="M29.8984 16.13C30.7589 16.3503 31.5215 16.8507 32.0661 17.5523C32.6107 18.2539 32.9063 19.1168 32.9063 20.005C32.9063 20.8932 32.6107 21.7561 32.0661 22.4577C31.5215 23.1593 30.7589 23.6597 29.8984 23.88" stroke="#6949EB" stroke-width="1.5" stroke-linecap="round" stroke-linejoin="round"/>
</g>
<defs>
<clipPath id="clip0_294_1956">
<rect width="24" height="24" fill="white" transform="translate(13.8984 13)"/>
</clipPath>
</defs>
</svg>
