<svg width="41" height="41" viewBox="0 0 41 41" fill="none" xmlns="http://www.w3.org/2000/svg">
<g clip-path="url(#clip0_231_1562)">
<path d="M40.9772 21.2828C40.9772 21.104 40.9772 20.9414 40.9772 20.7788C40.9772 20.6162 40.9772 20.4374 40.9772 20.2748C40.9284 18.2099 40.5707 16.2263 39.9366 14.3728C39.0749 11.8039 37.6929 9.47893 35.9369 7.51161C35.9044 7.47909 35.8719 7.43031 35.8394 7.3978C33.6444 4.95897 30.8479 3.05669 27.6775 1.93483C25.5801 1.18693 23.3201 0.780457 20.9788 0.780457C9.93908 0.780457 0.980469 9.73907 0.980469 20.7788C0.980469 31.8185 9.93908 40.7772 20.9788 40.7772C21.369 40.7772 21.743 40.7609 22.1169 40.7446C23.0112 40.6959 23.8891 40.5821 24.7509 40.4195C25.7427 40.2244 26.7182 39.9642 27.6612 39.639C28.5717 39.9642 29.5147 40.2244 30.4902 40.4195C31.7422 40.6633 33.0266 40.7934 34.3436 40.7934C35.0102 40.7934 35.6605 40.7609 36.3109 40.6959C37.9205 40.5333 39.4814 40.1918 40.9609 39.6716V32.4201C40.5219 32.664 40.0829 32.8916 39.6114 33.0867C38.4571 33.5745 37.2214 33.9159 35.9207 34.0623C38.2294 31.4771 39.8553 28.2904 40.5707 24.7622C40.8146 23.6241 40.9447 22.4697 40.9772 21.2828ZM30.8154 29.835C30.5715 30.1764 30.2789 30.4691 29.9374 30.7129C29.2871 31.1845 28.4741 31.4771 27.5962 31.4771C26.9295 31.4771 26.2955 31.3145 25.7427 31.0219C25.0273 30.6479 24.4257 30.0463 24.0517 29.3147C23.9217 29.0708 23.8241 28.8107 23.7591 28.5343C23.6615 28.1928 23.6127 27.8514 23.6127 27.4774C23.6127 27.136 23.6615 26.8108 23.7428 26.5019C24.133 24.9248 25.4663 23.7217 27.1084 23.5265C27.2222 23.5103 27.336 23.494 27.4498 23.494C27.5149 23.494 27.5636 23.494 27.6287 23.494C29.8399 23.494 31.6283 25.2825 31.6283 27.4937C31.5958 28.3392 31.3032 29.1684 30.8154 29.835ZM28.7505 16.9255C28.3766 16.8767 27.9864 16.8604 27.5962 16.8604C25.1411 16.8604 22.8811 17.6896 21.0926 19.0879C21.0601 19.1204 21.0113 19.1529 20.9788 19.1854C20.3935 19.6569 19.857 20.1935 19.3855 20.7788C17.9059 22.5998 17.0117 24.9085 17.0117 27.4287C17.0117 27.4774 17.0117 27.51 17.0117 27.5587C17.0279 29.6561 17.662 31.6072 18.7188 33.2331C18.9302 33.5095 19.1741 33.7859 19.4017 34.046C19.3692 34.046 19.3204 34.0297 19.2879 34.0297C18.8814 33.981 18.4587 33.8997 18.0685 33.8184C17.1905 33.6233 16.3613 33.3469 15.5484 32.9892C10.8658 30.9081 7.59781 26.2255 7.59781 20.7625C7.59781 13.9176 12.7519 8.25951 19.3855 7.49535C19.9057 7.43031 20.426 7.3978 20.9463 7.3978H20.9626C23.4014 7.3978 25.6776 8.04815 27.6449 9.18627C27.7913 9.26756 27.9213 9.34886 28.0677 9.44641C30.1 10.7309 31.7747 12.5356 32.864 14.698C32.9941 14.9419 33.1079 15.202 33.2217 15.4622C33.7257 16.6328 34.0834 17.901 34.2298 19.218C32.7177 17.966 30.8317 17.1531 28.7505 16.9255Z" fill="#6835F5"/>
</g>
<defs>
<clipPath id="clip0_231_1562">
<rect width="39.9967" height="39.9967" fill="white" transform="translate(0.980469 0.780457)"/>
</clipPath>
</defs>
</svg>
