<svg width="61" height="91" viewBox="0 0 61 91" fill="none" xmlns="http://www.w3.org/2000/svg">
<g clip-path="url(#clip0_231_703)">
<path d="M48.334 30.6049C48.334 30.3902 48.334 30.1951 48.334 30C48.334 29.8049 48.334 29.5902 48.334 29.3951C48.2754 26.9171 47.8462 24.5366 47.0852 22.3122C46.0511 19.2293 44.3925 16.439 42.2852 14.078C42.2462 14.039 42.2072 13.9805 42.1681 13.9415C39.534 11.0146 36.1779 8.73171 32.373 7.38537C29.8559 6.4878 27.1437 6 24.334 6C11.0852 6 0.333984 16.7512 0.333984 30C0.333984 43.2488 11.0852 54 24.334 54C24.8023 54 25.2511 53.9805 25.6998 53.961C26.773 53.9024 27.8267 53.7659 28.8608 53.5707C30.0511 53.3366 31.2218 53.0244 32.3535 52.6341C33.4462 53.0244 34.5779 53.3366 35.7486 53.5707C37.2511 53.8634 38.7925 54.0195 40.373 54.0195C41.173 54.0195 41.9535 53.9805 42.734 53.9024C44.6657 53.7073 46.5389 53.2976 48.3145 52.6732V43.9707C47.7876 44.2634 47.2608 44.5366 46.695 44.7707C45.3096 45.3561 43.8267 45.7659 42.2657 45.9415C45.0364 42.839 46.9876 39.0146 47.8462 34.7805C48.1389 33.4146 48.295 32.0293 48.334 30.6049ZM36.1389 40.8683C35.8462 41.278 35.495 41.6293 35.0852 41.922C34.3047 42.4878 33.3291 42.839 32.2754 42.839C31.4754 42.839 30.7145 42.6439 30.0511 42.2927C29.1925 41.8439 28.4706 41.1219 28.0218 40.2439C27.8657 39.9512 27.7486 39.639 27.6706 39.3073C27.5535 38.8976 27.495 38.4878 27.495 38.039C27.495 37.6293 27.5535 37.239 27.6511 36.8683C28.1193 34.9756 29.7193 33.5317 31.6901 33.2976C31.8267 33.278 31.9633 33.2585 32.0998 33.2585C32.1779 33.2585 32.2364 33.2585 32.3145 33.2585C34.9681 33.2585 37.1145 35.4049 37.1145 38.0585C37.0754 39.0732 36.7242 40.0683 36.1389 40.8683ZM33.6608 25.3756C33.212 25.3171 32.7437 25.2976 32.2754 25.2976C29.3291 25.2976 26.6169 26.2927 24.4706 27.9707C24.4315 28.0098 24.373 28.0488 24.334 28.0878C23.6315 28.6537 22.9876 29.2976 22.4218 30C20.6462 32.1854 19.573 34.9561 19.573 37.9805C19.573 38.039 19.573 38.078 19.573 38.1366C19.5925 40.6537 20.3535 42.9951 21.6218 44.9463C21.8754 45.278 22.1681 45.6098 22.4413 45.922C22.4023 45.922 22.3437 45.9024 22.3047 45.9024C21.8169 45.8439 21.3096 45.7463 20.8413 45.6488C19.7876 45.4146 18.7925 45.0829 17.8169 44.6537C12.1974 42.1561 8.27545 36.5366 8.27545 29.9805C8.27545 21.7659 14.4608 14.9756 22.4218 14.0585C23.0462 13.9805 23.6706 13.9415 24.295 13.9415H24.3145C27.2413 13.9415 29.973 14.722 32.334 16.0878C32.5096 16.1854 32.6657 16.2829 32.8413 16.4C35.2803 17.9415 37.2901 20.1073 38.5974 22.7024C38.7535 22.9951 38.8901 23.3073 39.0267 23.6195C39.6315 25.0244 40.0608 26.5463 40.2364 28.1268C38.4218 26.6244 36.1584 25.6488 33.6608 25.3756Z" fill="#6835F5"/>
</g>
<path d="M12.2463 82.6907L10.5503 80.6587C10.0809 80.776 9.60093 80.8347 9.11027 80.8347C8.06493 80.8347 7.10493 80.5893 6.23027 80.0987C5.3556 79.608 4.66227 78.9307 4.15027 78.0667C3.63827 77.192 3.38227 76.2053 3.38227 75.1067C3.38227 74.0187 3.63827 73.0427 4.15027 72.1787C4.66227 71.304 5.3556 70.6213 6.23027 70.1307C7.10493 69.64 8.06493 69.3947 9.11027 69.3947C10.1663 69.3947 11.1263 69.64 11.9903 70.1307C12.8649 70.6213 13.5529 71.304 14.0543 72.1787C14.5663 73.0427 14.8223 74.0187 14.8223 75.1067C14.8223 76.0987 14.6089 77.0053 14.1823 77.8267C13.7663 78.6373 13.1956 79.2987 12.4703 79.8107L15.0303 82.6907H12.2463ZM5.68627 75.1067C5.68627 75.8533 5.83027 76.5093 6.11827 77.0747C6.40627 77.64 6.80627 78.0773 7.31827 78.3867C7.84093 78.6853 8.43827 78.8347 9.11027 78.8347C9.78227 78.8347 10.3743 78.6853 10.8863 78.3867C11.3983 78.0773 11.7983 77.64 12.0863 77.0747C12.3743 76.5093 12.5183 75.8533 12.5183 75.1067C12.5183 74.36 12.3743 73.7093 12.0863 73.1547C11.7983 72.5893 11.3983 72.1573 10.8863 71.8587C10.3743 71.56 9.78227 71.4107 9.11027 71.4107C8.43827 71.4107 7.84093 71.56 7.31827 71.8587C6.80627 72.1573 6.40627 72.5893 6.11827 73.1547C5.83027 73.7093 5.68627 74.36 5.68627 75.1067ZM18.76 73.2347C19.048 72.7653 19.4213 72.3973 19.88 72.1307C20.3493 71.864 20.8827 71.7307 21.48 71.7307V74.0827H20.888C20.184 74.0827 19.6507 74.248 19.288 74.5787C18.936 74.9093 18.76 75.4853 18.76 76.3067V80.7227H16.52V71.8587H18.76V73.2347ZM31.2288 76.0987C31.2288 76.4187 31.2074 76.7067 31.1648 76.9627H24.6848C24.7381 77.6027 24.9621 78.104 25.3568 78.4667C25.7514 78.8293 26.2368 79.0107 26.8128 79.0107C27.6448 79.0107 28.2368 78.6533 28.5888 77.9387H31.0048C30.7488 78.792 30.2581 79.496 29.5328 80.0507C28.8074 80.5947 27.9168 80.8667 26.8608 80.8667C26.0074 80.8667 25.2394 80.68 24.5568 80.3067C23.8848 79.9227 23.3568 79.384 22.9728 78.6907C22.5994 77.9973 22.4128 77.1973 22.4128 76.2907C22.4128 75.3733 22.5994 74.568 22.9728 73.8747C23.3461 73.1813 23.8688 72.648 24.5408 72.2747C25.2128 71.9013 25.9861 71.7147 26.8608 71.7147C27.7034 71.7147 28.4554 71.896 29.1168 72.2587C29.7888 72.6213 30.3061 73.1387 30.6688 73.8107C31.0421 74.472 31.2288 75.2347 31.2288 76.0987ZM28.9088 75.4587C28.8981 74.8827 28.6901 74.424 28.2848 74.0827C27.8794 73.7307 27.3834 73.5547 26.7968 73.5547C26.2421 73.5547 25.7728 73.7253 25.3888 74.0667C25.0154 74.3973 24.7861 74.8613 24.7008 75.4587H28.9088ZM36.2558 80.8667C35.5304 80.8667 34.8798 80.7387 34.3038 80.4827C33.7278 80.216 33.2691 79.8587 32.9278 79.4107C32.5971 78.9627 32.4158 78.4667 32.3838 77.9227H34.6398C34.6824 78.264 34.8478 78.5467 35.1358 78.7707C35.4344 78.9947 35.8024 79.1067 36.2398 79.1067C36.6664 79.1067 36.9971 79.0213 37.2318 78.8507C37.4771 78.68 37.5998 78.4613 37.5998 78.1947C37.5998 77.9067 37.4504 77.6933 37.1518 77.5547C36.8638 77.4053 36.3998 77.2453 35.7598 77.0747C35.0984 76.9147 34.5544 76.7493 34.1278 76.5787C33.7118 76.408 33.3491 76.1467 33.0398 75.7947C32.7411 75.4427 32.5918 74.968 32.5918 74.3707C32.5918 73.88 32.7304 73.432 33.0078 73.0267C33.2958 72.6213 33.7011 72.3013 34.2238 72.0667C34.7571 71.832 35.3811 71.7147 36.0958 71.7147C37.1518 71.7147 37.9944 71.9813 38.6238 72.5147C39.2531 73.0373 39.5998 73.7467 39.6638 74.6427H37.5198C37.4878 74.2907 37.3384 74.0133 37.0718 73.8107C36.8158 73.5973 36.4691 73.4907 36.0318 73.4907C35.6264 73.4907 35.3118 73.5653 35.0878 73.7147C34.8744 73.864 34.7678 74.072 34.7678 74.3387C34.7678 74.6373 34.9171 74.8667 35.2158 75.0267C35.5144 75.176 35.9784 75.3307 36.6078 75.4907C37.2478 75.6507 37.7758 75.816 38.1918 75.9867C38.6078 76.1573 38.9651 76.424 39.2638 76.7867C39.5731 77.1387 39.7331 77.608 39.7438 78.1947C39.7438 78.7067 39.5998 79.1653 39.3118 79.5707C39.0344 79.976 38.6291 80.296 38.0958 80.5307C37.5731 80.7547 36.9598 80.8667 36.2558 80.8667ZM44.1905 73.6987V77.9867C44.1905 78.2853 44.2598 78.504 44.3985 78.6427C44.5478 78.7707 44.7932 78.8347 45.1345 78.8347H46.1745V80.7227H44.7665C42.8785 80.7227 41.9345 79.8053 41.9345 77.9707V73.6987H40.8785V71.8587H41.9345V69.6667H44.1905V71.8587H46.1745V73.6987H44.1905Z" fill="white"/>
<defs>
<clipPath id="clip0_231_703">
<rect width="48" height="48" fill="white" transform="translate(0.333984 6)"/>
</clipPath>
</defs>
</svg>
